<!-- icon666.com - MILLIONS vector ICONS FREE --><svg viewBox="0 -2 480 479" xmlns="http://www.w3.org/2000/svg" xmlns:xlink="http://www.w3.org/1999/xlink"><linearGradient id="a"><stop offset="0" stop-color="#e93e3a"></stop><stop offset=".112" stop-color="#ed683c"></stop><stop offset=".356" stop-color="#ed6a3c"></stop><stop offset=".703" stop-color="#f3903f"></stop><stop offset="1" stop-color="#fdc70c"></stop></linearGradient><linearGradient id="b" gradientUnits="userSpaceOnUse" x1="240" x2="240" xlink:href="#a" y1="492.644" y2="-54.124"></linearGradient><linearGradient id="c" gradientUnits="userSpaceOnUse" x1="16" x2="16" xlink:href="#a" y1="492.644" y2="-54.124"></linearGradient><linearGradient id="d" gradientUnits="userSpaceOnUse" x1="64" x2="64" xlink:href="#a" y1="492.644" y2="-54.124"></linearGradient><linearGradient id="e" gradientUnits="userSpaceOnUse" x1="112" x2="112" xlink:href="#a" y1="492.644" y2="-54.124"></linearGradient><linearGradient id="f" gradientUnits="userSpaceOnUse" x1="160" x2="160" xlink:href="#a" y1="492.644" y2="-54.124"></linearGradient><linearGradient id="g" gradientUnits="userSpaceOnUse" x1="320" x2="320" xlink:href="#a" y1="492.644" y2="-54.124"></linearGradient><linearGradient id="h" gradientUnits="userSpaceOnUse" x1="368" x2="368" xlink:href="#a" y1="492.644" y2="-54.124"></linearGradient><linearGradient id="i" gradientUnits="userSpaceOnUse" x1="416" x2="416" xlink:href="#a" y1="492.644" y2="-54.124"></linearGradient><linearGradient id="j" gradientUnits="userSpaceOnUse" x1="464" x2="464" xlink:href="#a" y1="492.644" y2="-54.124"></linearGradient><path d="m240 .5c-92.738281.105469-167.894531 75.261719-168 168 0 89.863281 101.414062 227.144531 144.726562 285.761719 4.105469 5.550781 7.601563 10.285156 10.320313 14.054687 3 4.167969 7.820313 6.640625 12.953125 6.640625s9.953125-2.472656 12.953125-6.640625c2.71875-3.769531 6.214844-8.503906 10.320313-14.054687 43.3125-58.617188 144.726562-195.898438 144.726562-285.761719-.105469-92.738281-75.261719-167.894531-168-168zm10.398438 444.246094c-4.152344 5.601562-7.6875 10.402344-10.398438 14.210937-2.742188-3.808593-6.28125-8.59375-10.398438-14.210937-38.738281-52.414063-141.601562-191.644532-141.601562-276.246094 0-83.949219 68.050781-152 152-152s152 68.050781 152 152c0 84.601562-102.863281 223.832031-141.601562 276.246094zm0 0" fill="url(#b)"></path><path d="m240 48.5c-61.855469 0-112 50.144531-112 112s50.144531 112 112 112 112-50.144531 112-112c-.066406-61.828125-50.171875-111.933594-112-112zm0 16c34.421875-.070312 66.230469 18.332031 83.335938 48.203125 17.101562 29.871094 16.867187 66.621094-.617188 96.269531-2.738281-5.941406-6.5-11.359375-11.109375-16-10.453125-10.59375-24.730469-16.527344-39.609375-16.472656h-8v-1.367188c9.582031-3.402343 15.988281-12.464843 16-22.632812v-32c0-22.089844-17.910156-40-40-40s-40 17.910156-40 40v32c.011719 10.167969 6.417969 19.230469 16 22.632812v1.367188h-8c-21.800781-.035156-41.621094 12.628906-50.753906 32.425781-17.460938-29.652343-17.679688-66.390625-.570313-96.25 17.109375-29.855469 48.914063-48.246093 83.324219-48.175781zm0 138.65625-10.054688-13.410156c1.308594-1.433594 2.039063-3.304688 2.054688-5.246094v-16c0-4.417969-3.582031-8-8-8s-8-3.582031-8-8v-8.695312c12.746094-1.378907 24.542969-7.394532 33.144531-16.90625 4.164063 4.03125 9.269531 6.949218 14.855469 8.488281v17.113281c0 4.417969-3.582031 8-8 8s-8 3.582031-8 8v16c.019531 1.929688.75 3.789062 2.046875 5.214844zm-24-75.59375v-7.0625c-.015625-12.746094 9.957031-23.269531 22.683594-23.933594 12.726562-.667968 23.746094 8.753906 25.058594 21.429688-3.515626-2.316406-6.441407-5.421875-8.542969-9.070313-1.445313-2.902343-4.496094-4.640625-7.726563-4.414062-3.230468.230469-6.003906 2.386719-7.023437 5.460937-4.390625 9.835938-13.730469 16.550782-24.449219 17.589844zm-47.054688 97.265625c3.550782-18.765625 19.957032-32.34375 39.054688-32.328125h4l20 26.664062v13.335938h-32v-16h-16v16h-7.289062c-2.730469-2.410156-5.324219-4.972656-7.765626-7.671875zm32.796876 23.671875h76.515624c-24.390624 10.667969-52.125 10.667969-76.515624 0zm101.546874-16h-7.289062v-16h-16v16h-32v-13.34375l19.945312-26.65625h4.054688c10.617188-.050781 20.804688 4.179688 28.265625 11.734375 5.5625 5.632813 9.324219 12.792969 10.804687 20.570313-2.445312 2.710937-5.042968 5.28125-7.78125 7.695312zm0 0" fill="url(#b)"></path><path d="m0 432.5h32v16h-32zm0 0" fill="url(#c)"></path><path d="m48 432.5h32v16h-32zm0 0" fill="url(#d)"></path><path d="m96 432.5h32v16h-32zm0 0" fill="url(#e)"></path><path d="m144 432.5h32v16h-32zm0 0" fill="url(#f)"></path><path d="m304 432.5h32v16h-32zm0 0" fill="url(#g)"></path><path d="m352 432.5h32v16h-32zm0 0" fill="url(#h)"></path><path d="m400 432.5h32v16h-32zm0 0" fill="url(#i)"></path><path d="m448 432.5h32v16h-32zm0 0" fill="url(#j)"></path></svg>