<!-- icon666.com - MILLIONS vector ICONS FREE --><svg enable-background="new 0 0 512 512" viewBox="0 0 512 512" xmlns="http://www.w3.org/2000/svg" xmlns:xlink="http://www.w3.org/1999/xlink"><linearGradient id="SVGID_1_" gradientUnits="userSpaceOnUse" x1="41.291" x2="470.709" y1="515.897" y2="86.48"><stop offset="0" stop-color="#ffae46"></stop><stop offset=".1898" stop-color="#ff9755"></stop><stop offset=".7388" stop-color="#ff5a7d"></stop><stop offset="1" stop-color="#ff428d"></stop></linearGradient><g id="_x33_8_Email"><path d="m42.569 202.225c1.307 0 2.614-.477 3.643-1.437l19.077-17.843v51.493c0 2.945 2.388 5.333 5.333 5.333s5.333-2.388 5.333-5.333v-165.272c0-3.029 2.463-5.495 5.492-5.495h349.106c3.029 0 5.492 2.466 5.492 5.495v165.272c0 2.945 2.388 5.333 5.333 5.333s5.333-2.388 5.333-5.333v-51.493l19.077 17.843c1.029.961 2.336 1.437 3.643 1.437 1.424 0 2.846-.568 3.896-1.69 2.01-2.151 1.898-5.526-.253-7.539l-26.363-24.658v-99.172c0-8.911-7.25-16.161-16.158-16.161h-107.223l-48.86-45.704c-10.359-9.703-26.585-9.695-36.939-.003l-48.861 45.707h-107.223c-8.908 0-16.158 7.25-16.158 16.161v99.173l-26.364 24.658c-2.151 2.013-2.263 5.388-.253 7.539 1.053 1.122 2.472 1.689 3.897 1.689zm202.252-187.138c6.375-5.963 15.986-5.971 22.361.003l40.533 37.915h-103.43zm242 191.42c-2.177-.729-4.575.026-5.953 1.862l-108.878 145.4h-231.98l-108.878-145.4c-1.378-1.838-3.778-2.596-5.953-1.862-2.18.724-3.648 2.763-3.648 5.06v273.4c0 14.893 12.114 27.007 27.007 27.007h414.926c14.893 0 27.007-12.114 27.007-27.007v-273.4c-.001-2.298-1.47-4.337-3.65-5.06zm-7.018 278.46c0 9.01-7.33 16.34-16.34 16.34h-414.926c-9.01 0-16.34-7.33-16.34-16.34v-257.38l100.876 134.713c1.005 1.344 2.588 2.135 4.268 2.135h237.318c1.68 0 3.263-.792 4.268-2.135l100.876-134.713zm-355.907-107.871c2.357 1.766 2.836 5.107 1.07 7.466l-67.143 89.65c-1.744 2.33-5.08 2.855-7.466 1.07-2.357-1.766-2.836-5.107-1.07-7.466l67.143-89.65c1.763-2.351 5.102-2.838 7.466-1.07zm263.138 7.466c-1.766-2.359-1.286-5.7 1.07-7.466 2.359-1.768 5.703-1.281 7.466 1.07l67.143 89.65c1.766 2.359 1.286 5.7-1.07 7.466-2.35 1.763-5.698 1.291-7.466-1.07zm-204.607-268.083c-2.945 0-5.333-2.388-5.333-5.333s2.388-5.333 5.333-5.333h147.145c2.945 0 5.333 2.388 5.333 5.333s-2.388 5.333-5.333 5.333zm217.932 57.401c0 2.945-2.388 5.333-5.333 5.333h-278.052c-2.945 0-5.333-2.388-5.333-5.333s2.388-5.333 5.333-5.333h278.051c2.946 0 5.334 2.388 5.334 5.333zm0 62.735c0 2.945-2.388 5.333-5.333 5.333h-278.052c-2.945 0-5.333-2.388-5.333-5.333s2.388-5.333 5.333-5.333h278.051c2.946 0 5.334 2.388 5.334 5.333zm0 62.734c0 2.945-2.388 5.333-5.333 5.333h-278.052c-2.945 0-5.333-2.388-5.333-5.333s2.388-5.333 5.333-5.333h278.051c2.946 0 5.334 2.388 5.334 5.333z" fill="url(#SVGID_1_)"></path></g></svg>