<!-- icon666.com - MILLIONS vector ICONS FREE --><svg viewBox="0 0 64 64" xmlns="http://www.w3.org/2000/svg" xmlns:xlink="http://www.w3.org/1999/xlink"><linearGradient id="linear-gradient" gradientUnits="userSpaceOnUse" x1="14" x2="50" y1="32" y2="32"><stop offset="0" stop-color="#f2551c"></stop><stop offset="1" stop-color="#ffd432"></stop></linearGradient><g id="_09_phone_handphone_mobile" data-name="09 phone, handphone,mobile"><path d="m42 4h-20a8 8 0 0 0 -8 8v40a8 8 0 0 0 8 8h20a8 8 0 0 0 8-8v-40a8 8 0 0 0 -8-8zm4 12v28h-28v-28zm-24-8h20a4 4 0 0 1 4 4h-28a4 4 0 0 1 4-4zm20 48h-20a4 4 0 0 1 -4-4v-4h28v4a4 4 0 0 1 -4 4zm-14-6h8v4h-8zm0-16a4 4 0 0 1 8 0v2h4v-2a8 8 0 0 0 -3.21-6.4 6 6 0 1 0 -9.58 0 8 8 0 0 0 -3.21 6.4v2h4zm2-10a2 2 0 1 1 2 2 2 2 0 0 1 -2-2zm-6 18v-4h16v4z" fill="url(#linear-gradient)"></path></g></svg>